<?xml version="1.0" encoding="utf-8"?>
<!-- Generator: Adobe Illustrator 21.0.2, SVG Export Plug-In . SVG Version: 6.00 Build 0)  -->
<svg version="1.1" id="Layer_1" xmlns="http://www.w3.org/2000/svg" xmlns:xlink="http://www.w3.org/1999/xlink" x="0px" y="0px"
	 viewBox="0 0 621.9 132.6" style="enable-background:new 0 0 621.9 132.6;" xml:space="preserve">
<style type="text/css">
	.st0{fill:#FFFFFF;}
</style>
<g>
	<path class="st0" d="M58.5,28.8h18.7v74.8H58.5v-7.9c-3.7,3.4-7.3,6-11,7.6c-3.7,1.5-7.7,2.3-11.9,2.3c-9.6,0-18-3.7-25.1-11.3
		C3.6,86.8,0,77.5,0,66.4c0-11.5,3.4-21,10.2-28.3c6.8-7.4,15-11,24.8-11c4.5,0,8.7,0.8,12.7,2.5c4,1.7,7.6,4.2,10.8,7.6V28.8z
		 M38.8,44.1c-5.7,0-10.5,2-14.4,6.2c-3.9,4-5.7,9.3-5.7,15.8s2,11.8,5.9,15.9c3.9,4.2,8.7,6.2,14.4,6.2c5.9,0,10.8-2,14.7-6.2
		c3.9-4,5.9-9.4,5.9-16.1c0-6.5-2-11.8-5.9-15.8C49.7,46.1,44.7,44.1,38.8,44.1z"/>
	<path class="st0" d="M94.1,0h18.7v103.5H94.1V0z"/>
	<path class="st0" d="M129.7,28.8h18.7v8.5c3.3-3.6,6.8-6.2,10.7-7.9c3.9-1.7,8.2-2.6,12.8-2.6s8.8,1.1,12.7,3.4
		c3.7,2.3,6.8,5.6,9.1,10.1c2.9-4.3,6.7-7.7,11-10.1c4.3-2.3,9.1-3.4,14.2-3.4c5.3,0,9.9,1.2,14.1,3.7c4,2.5,7,5.7,8.7,9.8
		c1.7,4,2.6,10.5,2.6,19.5v43.8h-18.9V65.6c0-8.5-1.1-14.2-3.1-17.2c-2.2-2.9-5.3-4.5-9.4-4.5c-3.3,0-6,0.9-8.7,2.8
		c-2.5,1.9-4.5,4.3-5.7,7.6c-1.2,3.3-1.9,8.4-1.9,15.5v33.7h-18.9V67.3c0-6.7-0.5-11.5-1.5-14.5c-0.9-2.9-2.5-5.3-4.5-6.7
		c-2-1.4-4.3-2.2-7.1-2.2c-3.1,0-5.9,0.9-8.5,2.8c-2.5,1.9-4.5,4.5-5.7,7.7c-1.2,3.4-1.9,8.7-1.9,15.8v33.3h-18.7V28.8H129.7z"/>
	<path class="st0" d="M317.1,28.8h18.7v74.8h-18.7v-7.9c-3.7,3.4-7.3,6-11,7.6c-3.7,1.5-7.7,2.3-11.9,2.3c-9.6,0-18-3.7-25.1-11.3
		c-7-7.4-10.5-16.7-10.5-27.9c0-11.5,3.4-21,10.2-28.3s15-11,24.8-11c4.5,0,8.7,0.8,12.7,2.5c4,1.7,7.6,4.2,10.8,7.6V28.8z
		 M297.5,44.1c-5.7,0-10.5,2-14.4,6.2c-3.9,4-5.7,9.3-5.7,15.8s2,11.8,5.9,15.9c3.9,4.2,8.7,6.2,14.4,6.2c5.9,0,10.8-2,14.7-6.2
		c3.9-4,5.9-9.4,5.9-16.1c0-6.5-2-11.8-5.9-15.8C308.3,46.1,303.4,44.1,297.5,44.1z"/>
	<path class="st0" d="M354.9,28.8h18.7v7.6c4.2-3.6,8-6,11.6-7.4c3.4-1.4,7-2.2,10.5-2.2c7.4,0,13.6,2.6,18.9,7.7
		c4.3,4.3,6.5,10.8,6.5,19.5v49.4h-18.6V70.7c0-9-0.5-14.9-1.2-17.8c-0.8-2.9-2.2-5.1-4.2-6.7c-2-1.5-4.5-2.3-7.4-2.3
		c-3.7,0-7,1.2-9.8,3.9c-2.8,2.5-4.6,6-5.7,10.5c-0.6,2.3-0.8,7.4-0.8,15.2v30h-18.7V28.8H354.9z"/>
	<path class="st0" d="M494.4,28.8h18.7v63.9c0,12.7-2.5,22-7.6,27.9c-6.8,8-17,12.1-30.8,12.1c-7.3,0-13.5-0.9-18.4-2.8
		c-5-1.9-9.1-4.5-12.7-8c-3.4-3.6-6-7.9-7.6-13h20.6c1.9,2.2,4.2,3.7,7.1,4.8c2.9,1.1,6.3,1.5,10.2,1.5c5.1,0,9.1-0.8,12.2-2.3
		c3.1-1.5,5.3-3.6,6.5-6c1.2-2.5,1.9-6.7,1.9-12.7c-3.3,3.3-6.8,5.7-10.4,7.1c-3.6,1.4-7.7,2.2-12.2,2.2c-10.1,0-18.4-3.6-25.4-10.8
		c-7-7.3-10.4-16.4-10.4-27.4c0-11.9,3.7-21.4,11-28.6c6.7-6.5,14.5-9.8,23.7-9.8c4.3,0,8.4,0.8,12.2,2.3c3.9,1.5,7.6,4.2,11.5,7.7
		v-8H494.4z M475,44.4c-5.9,0-10.8,2-14.5,5.9c-3.9,4-5.7,9-5.7,14.9c0,6.2,2,11.3,5.9,15.3c3.9,4,8.8,6,14.9,6
		c5.9,0,10.7-2,14.4-5.9c3.7-3.9,5.7-9,5.7-15.3c0-6.2-1.9-11.3-5.7-15.2C485.8,46.3,480.9,44.4,475,44.4z"/>
	<g>
		<path class="st0" d="M586.9,73.8l1.9,1.1l0,0c0.3,0.2,0.6,0.2,0.8,0.2s0.5-0.2,0.6-0.5l8.5-15c0.2-0.3,0.2-0.6,0.2-0.8
			c0-0.2-0.2-0.5-0.5-0.6l-2-1.1L588.6,71L586.9,73.8z"/>
		<path class="st0" d="M568.3,88.8c-0.2-0.3-0.3-0.6-0.6-0.8L557,82c-0.5-0.2-0.6-0.2-1.1-0.2c-0.3,0.2-0.6,0.3-0.8,0.6l-9.8,17.3
			l4,7h9.3l9.4-16.9C568.5,89.5,568.5,89.2,568.3,88.8z"/>
		<path class="st0" d="M570.7,50.9l-4.6,8.2l18.4,10.4l1.9-3.4l4.8-8.5l-19.8-11.1c-5.1-2.9-10.4-3.3-15.8-1.1l0.9,2.9
			c6.7-1.7,12.1,1.5,12.4,1.7L570.7,50.9z"/>
		<polygon class="st0" points="568.8,65.6 561.1,79.4 565.7,82 567.9,83.3 575.6,69.5 		"/>
		<path class="st0" d="M621.9,64.9l-24.1-41.8h-48.3l-24.1,41.8L543,95.5l8.5-15.2c0.8-1.2,1.9-2.2,3.4-2.6c0.8-0.2,1.5-0.3,2.3-0.2
			l7.9-14.1l-5-2.8l4.6-8.2c-2-0.6-5.3-1.4-8.8,0.2l-2.2,0.9l-3.3-10.7l1.5-0.8c7.3-3.6,14.4-3.4,21.4,0.5l19.8,11.1l1.4-2.5
			l5.7,3.3c1.2,0.6,2,1.7,2.5,3.1c0.5,1.4,0.2,2.8-0.5,3.9l-8.5,15c-0.6,1.2-1.9,2-3.1,2.5c-1.4,0.3-2.6,0.2-3.9-0.5l0,0l-5.6-3.1
			l1.2-2.2l-3.1-1.7l-7.9,14.1c0.5,0.6,0.9,1.2,1.1,2c0.5,1.4,0.2,2.9-0.5,4.3l-8.4,14.7h34.1L621.9,64.9z"/>
	</g>
</g>
</svg>
